<?xml version="1.0" encoding="UTF-8" standalone="no"?>
<svg
   xmlns:dc="http://purl.org/dc/elements/1.1/"
   xmlns:cc="http://creativecommons.org/ns#"
   xmlns:rdf="http://www.w3.org/1999/02/22-rdf-syntax-ns#"
   xmlns:svg="http://www.w3.org/2000/svg"
   xmlns="http://www.w3.org/2000/svg"
   xmlns:sodipodi="http://sodipodi.sourceforge.net/DTD/sodipodi-0.dtd"
   xmlns:inkscape="http://www.inkscape.org/namespaces/inkscape"
   version="1.1"
   width="155.52"
   height="16.320499"
   id="svg46"
   viewBox="0 0 155.52 16.320499"
   sodipodi:docname="BioMathLogo.svg"
   inkscape:version="0.92.4 (5da689c313, 2019-01-14)">
  <metadata
     id="metadata52">
    <rdf:RDF>
      <cc:Work
         rdf:about="">
        <dc:format>image/svg+xml</dc:format>
        <dc:type
           rdf:resource="http://purl.org/dc/dcmitype/StillImage" />
        <dc:title></dc:title>
      </cc:Work>
    </rdf:RDF>
  </metadata>
  <defs
     id="defs50" />
  <sodipodi:namedview
     pagecolor="#ffffff"
     bordercolor="#666666"
     borderopacity="1"
     objecttolerance="10"
     gridtolerance="10"
     guidetolerance="10"
     inkscape:pageopacity="0"
     inkscape:pageshadow="2"
     inkscape:window-width="2560"
     inkscape:window-height="1017"
     id="namedview48"
     showgrid="false"
     inkscape:zoom="8.0000004"
     inkscape:cx="72.551386"
     inkscape:cy="11.826071"
     inkscape:window-x="1912"
     inkscape:window-y="-8"
     inkscape:window-maximized="1"
     inkscape:current-layer="svg46"
     showborder="false" />
  <g
     inkscape:export-ydpi="2499"
     inkscape:export-xdpi="2499"
     inkscape:export-filename="\\SERVER-BIOMATH\BioMath\BioMath\Firma\Social Media\Twitter Portrait 400x400.png"
     id="g3853">
    <path
       inkscape:connector-curvature="0"
       id="path14"
       style="fill:#00923f;fill-rule:evenodd"
       d="M 13.9988,5.7087 13.9977,5.3891 C 13.8871,5.3805 13.7765,5.3778 13.6695,5.3799 12.896,5.3955 12.2086,5.6793 11.6195,6.2256 10.878,6.9141 10.4039,7.9346 10.1067,8.9267 9.809,7.9346 9.3359,6.9141 8.5929,6.2256 8.0048,5.6793 7.3169,5.3955 6.5439,5.3799 6.4354,5.3778 6.3263,5.3805 6.2146,5.3891 v 0.3202 0.581 h 0.0882 c 0.6468,-0.0439 1.1947,0.1529 1.6747,0.5982 1.2498,1.1605 1.6732,3.7741 1.6765,4.8042 0,0.0042 0,0.0096 0,0.0134 v 1.718 l 0.4527,-5e-4 0.4523,5e-4 5e-4,-1.718 c 0,-0.0038 -5e-4,-0.0092 -5e-4,-0.0134 0.0037,-1.0301 0.427,-3.6437 1.6768,-4.8042 0.4806,-0.4453 1.028,-0.6421 1.6748,-0.5982 h 0.0882 z" />
    <path
       style="fill:#00923f;fill-rule:evenodd"
       d="M 5.1289062,5.515625 2.4277344,8.2167969 5.1289062,10.919922 9.6542969,15.443359 V 14.164062 L 5.1289062,9.6386719 v -2.84375 z"
       id="path16"
       inkscape:connector-curvature="0" />
    <path
       inkscape:connector-curvature="0"
       id="path20"
       style="fill:#00923f;fill-rule:evenodd"
       d="M 13.9993,4.4301 10.1067,0.5369 6.2136,4.4301 h 1.2801 l 2.613,-2.6129 2.6129,2.6129 z" />
    <path
       inkscape:connector-curvature="0"
       id="path22"
       style="fill:#00923f;fill-rule:evenodd"
       d="m 15.0845,5.5147 v 1.2802 2.8444 l -4.525,4.5252 v 1.2802 l 4.525,-4.5255 2.7022,-2.7023 z" />
    <path
       inkscape:connector-curvature="0"
       id="path24"
       style="fill:none"
       d="M 13.9993,4.4301 H 12.7196 L 10.1067,1.8172 7.4937,4.4301 H 6.2136 5.1289 V 5.5152 6.7949 9.6388 L 9.654,14.164 v 1.2802 l 0.4527,0.4528 0.4528,-0.4523 v -1.2802 l 4.525,-4.5252 V 6.7949 5.5147 4.4301 Z m -0.0887,1.8602 c -0.6468,-0.0439 -1.1942,0.1529 -1.6748,0.5982 -1.2498,1.1605 -1.6731,3.7741 -1.6768,4.8042 0,0.0042 5e-4,0.0096 5e-4,0.0134 l -5e-4,1.718 -0.4523,-5e-4 -0.4527,5e-4 v -1.718 c 0,-0.0038 0,-0.0092 0,-0.0134 C 9.6507,10.6626 9.2273,8.049 7.9775,6.8885 7.4975,6.4432 6.9496,6.2464 6.3028,6.2903 H 6.2146 V 5.7093 5.3891 C 6.3263,5.3805 6.4354,5.3778 6.5439,5.3799 c 0.773,0.0156 1.4609,0.2994 2.049,0.8457 0.743,0.6885 1.2161,1.709 1.5138,2.7011 0.2972,-0.9921 0.7713,-2.0126 1.5128,-2.7011 0.5891,-0.5463 1.2765,-0.8301 2.05,-0.8457 0.107,-0.0021 0.2176,6e-4 0.3282,0.0092 l 0.0011,0.3196 v 0.5816 z" />
  </g>
  <g
     id="g3879"
     style="fill:#00923f;fill-opacity:1">
    <path
       inkscape:connector-curvature="0"
       id="path26"
       style="fill:#00923f;fill-opacity:1;fill-rule:evenodd"
       d="M 26.229,8.1164 C 25.9686,7.8127 25.619,7.6016 25.1882,7.4872 25.4276,7.3471 25.6266,7.1693 25.7794,6.958 c 0.1829,-0.2524 0.2753,-0.5608 0.2753,-0.9162 0,-0.3133 -0.063,-0.588 -0.1882,-0.8163 C 25.7404,4.9961 25.5367,4.8061 25.2598,4.6607 25.015,4.5351 24.7552,4.4515 24.4879,4.4119 24.2254,4.3728 23.8256,4.3531 23.2996,4.3531 H 21.095 v 7.338 h 2.6242 c 0.5041,0 0.9253,-0.0462 1.2536,-0.1376 0.3314,-0.0926 0.6403,-0.2497 0.9168,-0.4673 0.2368,-0.1833 0.4271,-0.4196 0.5671,-0.7021 0.1395,-0.2822 0.2106,-0.612 0.2106,-0.9798 0,-0.515 -0.1475,-0.9485 -0.4383,-1.2879 z m -4.0242,0.087 h 1.423 c 0.3106,0 0.5779,0.0121 0.7949,0.0359 0.2096,0.0227 0.3892,0.0727 0.5346,0.1486 0.2127,0.1107 0.3603,0.2453 0.4394,0.4004 0.0807,0.1582 0.1219,0.3785 0.1219,0.6546 0,0.2407 -0.0396,0.4379 -0.1171,0.5863 -0.077,0.1485 -0.2021,0.2835 -0.3699,0.4011 -0.1609,0.1088 -0.371,0.185 -0.6255,0.2264 -0.2608,0.0425 -0.6019,0.0642 -1.0145,0.0642 H 22.2048 Z M 24.8172,6.6805 C 24.7616,6.8171 24.6638,6.9307 24.527,7.0184 24.3848,7.109 24.2287,7.1693 24.063,7.198 23.8914,7.2274 23.6557,7.2423 23.3627,7.2423 h -1.1579 v -1.919 h 1.0612 c 0.3127,0 0.5794,0.0107 0.7932,0.0313 0.2037,0.0195 0.3779,0.0708 0.5185,0.1515 0.116,0.0665 0.1972,0.1502 0.2491,0.2561 0.0524,0.1077 0.0792,0.244 0.0792,0.4052 0,0.1975 -0.03,0.3701 -0.0888,0.5131 z" />
    <path
       inkscape:connector-curvature="0"
       id="path28"
       style="fill:#00923f;fill-opacity:1;fill-rule:evenodd"
       d="m 27.6862,4.5856 v 1.0959 h 1.1777 V 4.5856 Z" />
    <path
       inkscape:connector-curvature="0"
       id="path30"
       style="fill:#00923f;fill-opacity:1;fill-rule:evenodd"
       d="m 27.7439,6.4282 v 5.1814 h 1.0622 V 6.4282 Z" />
    <path
       inkscape:connector-curvature="0"
       id="path32"
       style="fill:#00923f;fill-opacity:1;fill-rule:evenodd"
       d="M 34.5302,6.6244 C 34.0662,6.1 33.383,5.8338 32.6084,5.8338 c -0.7821,0 -1.4673,0.2662 -1.9292,0.7912 -0.4459,0.5073 -0.7698,1.2967 -0.7698,2.2146 0,0.9183 0.3239,1.7067 0.7698,2.2127 0.4619,0.5233 1.1471,0.7885 1.9292,0.7885 0.7746,0 1.4578,-0.2652 1.9218,-0.7885 0.4479,-0.5054 0.7718,-1.2944 0.7718,-2.2127 0,-0.9183 -0.3239,-1.7079 -0.7718,-2.2152 z m -1.9218,4.2798 c -0.4682,0 -0.8767,-0.1617 -1.137,-0.4939 -0.2534,-0.3234 -0.4709,-0.8841 -0.4709,-1.5707 0,-0.7072 0.2159,-1.2749 0.4677,-1.5893 0.2592,-0.3228 0.6687,-0.48 1.1402,-0.48 0.4651,0 0.8718,0.1572 1.1328,0.48 0.2528,0.3144 0.4698,0.8815 0.4698,1.5893 0,0.6923 -0.2175,1.2545 -0.4731,1.575 -0.2619,0.3296 -0.6677,0.4896 -1.1295,0.4896 z" />
    <path
       inkscape:connector-curvature="0"
       id="path34"
       style="fill:#00923f;fill-opacity:1;fill-rule:evenodd"
       d="M 41.5826,4.3531 39.7785,8.2478 37.9139,4.3531 h -1.4294 v 7.338 h 1.0477 V 5.7712 l 1.856,3.9424 h 0.6672 l 1.8709,-3.9448 v 5.9223 h 1.1098 v -7.338 z" />
    <path
       inkscape:connector-curvature="0"
       id="path36"
       style="fill:#00923f;fill-opacity:1;fill-rule:evenodd"
       d="M 48.6986,7.0518 C 48.5874,6.8059 48.4233,6.6025 48.2112,6.4472 47.9973,6.2903 47.7412,6.178 47.4509,6.1134 46.9223,5.9952 46.1702,5.9787 45.4404,6.1054 45.1064,6.1631 44.846,6.2171 44.6665,6.2662 l -0.0567,0.0156 v 1.0584 h 0.125 l 0.0273,-0.0054 c 0.308,-0.117 0.6095,-0.2077 0.8965,-0.2691 0.5212,-0.112 0.9472,-0.1104 1.3332,-0.0542 0.1694,0.024 0.3159,0.071 0.4351,0.1397 0.1219,0.0697 0.2165,0.1666 0.2812,0.2874 0.0657,0.1237 0.0994,0.2833 0.0994,0.4749 v 0.0663 c -0.4966,0.0253 -0.9713,0.0633 -1.4118,0.1125 -0.4661,0.0521 -0.8713,0.1532 -1.2048,0.3004 -0.3368,0.1499 -0.5998,0.3592 -0.7827,0.6222 -0.1839,0.2647 -0.2769,0.6132 -0.2769,1.0357 0,0.5185 0.1786,0.9512 0.5309,1.2864 0.3512,0.3343 0.7847,0.5038 1.2883,0.5038 0.2683,0 0.5072,-0.0259 0.7099,-0.0773 0.201,-0.0513 0.3811,-0.1157 0.5324,-0.19 0.1336,-0.0601 0.2715,-0.1414 0.4121,-0.2417 0.0759,-0.055 0.1438,-0.1031 0.2026,-0.1443 v 0.5036 h 1.0574 V 7.957 c 0,-0.356 -0.0557,-0.6601 -0.1663,-0.9052 z M 47.8075,8.869 v 1.3796 c -0.2117,0.1595 -0.4432,0.2988 -0.6885,0.4142 -0.2524,0.1185 -0.5351,0.1786 -0.8403,0.1786 -0.3624,0 -0.633,-0.0727 -0.804,-0.2159 -0.17,-0.1419 -0.2523,-0.3504 -0.2523,-0.6375 0,-0.2538 0.0717,-0.4465 0.218,-0.5882 0.1502,-0.1465 0.3524,-0.2561 0.5988,-0.3261 0.2138,-0.0599 0.5089,-0.1058 0.8762,-0.1374 0.3367,-0.0288 0.6344,-0.0512 0.8921,-0.0673 z" />
    <path
       inkscape:connector-curvature="0"
       id="path38"
       style="fill:#00923f;fill-opacity:1;fill-rule:evenodd"
       d="M 53.2702,7.0649 V 6.1476 h -1.872 V 4.599 h -1.0611 v 1.5486 h -0.6132 v 0.9173 h 0.6132 v 2.7878 c 0,0.6707 0.1513,1.1675 0.4506,1.4773 0.2994,0.3101 0.7403,0.4672 1.3096,0.4672 0.1615,0 0.3459,-0.0147 0.5501,-0.0441 0.2026,-0.0294 0.3929,-0.0673 0.565,-0.1126 l 0.0578,-0.0152 v -0.9528 h -0.1257 l -0.0294,0.0056 c -0.0678,0.0278 -0.1812,0.0633 -0.3384,0.1056 -0.1528,0.0414 -0.3019,0.0626 -0.4426,0.0626 -0.241,0 -0.4212,-0.0276 -0.5334,-0.0818 -0.109,-0.0527 -0.1941,-0.1342 -0.2571,-0.25 C 51.4719,10.3868 51.4297,10.2472 51.418,10.0997 51.4051,9.9455 51.3982,9.7243 51.3982,9.4429 v -2.378 z" />
    <path
       inkscape:connector-curvature="0"
       id="path40"
       style="fill:#00923f;fill-opacity:1;fill-rule:evenodd"
       d="m 58.0224,6.7912 c -0.31,-0.3563 -0.804,-0.5524 -1.3899,-0.5524 -0.5784,0 -1.1007,0.3899 -1.4218,0.6523 V 3.76 l -1.0617,2e-4 v 7.9309 h 1.0617 V 7.8614 l 0.0501,-0.0391 c 0.2689,-0.2114 0.719,-0.5647 1.1932,-0.5647 0.2282,0 0.3368,0.0297 0.4805,0.0922 0.1369,0.0598 0.2395,0.148 0.3122,0.2721 0.0712,0.1125 0.1214,0.2731 0.1481,0.4776 0.0283,0.2125 0.0428,0.2109 0.0428,0.4538 v 3.1455 h 1.0622 V 8.3569 c 0,-0.6754 -0.1604,-1.2022 -0.4774,-1.5657 z" />
    <path
       d="m 58.6274,3.5253 v 8.2633 h 0.1475 V 3.5253 Z"
       style="fill:#00923f;fill-opacity:1;stroke:#ffffff;stroke-width:0.21600001;stroke-linecap:butt;stroke-linejoin:miter;stroke-dasharray:none"
       id="path43"
       inkscape:connector-curvature="0" />
  </g>
</svg>
